<svg width="186" height="52" viewBox="0 0 186 52" fill="none" xmlns="http://www.w3.org/2000/svg">
<path d="M19.6723 5.01952C20.4376 5.02484 21.2025 5.03017 21.9326 5.03017H29.3617C30.0919 5.03017 30.8568 5.02484 31.6221 5.01952C33.6825 5.00518 35.7458 4.99082 37.1424 5.08025C42.2264 5.40583 45.7325 8.48625 46.1833 13.7205C46.2902 15.6013 46.2876 17.8672 46.2846 20.5393V20.54C46.2841 20.9987 46.2835 21.4693 46.2835 21.952V29.381C46.2835 29.8637 46.2841 30.3343 46.2846 30.793C46.2876 33.4654 46.2902 35.7315 46.1833 37.6125C45.7325 42.8468 42.2264 45.9272 37.1424 46.2528C35.7458 46.3422 33.6825 46.3278 31.6221 46.3135C30.8568 46.3082 30.0919 46.3028 29.3617 46.3028H21.9326C21.2025 46.3028 20.4376 46.3082 19.6723 46.3135C17.6119 46.3278 15.5485 46.3422 14.1519 46.2528C9.06799 45.9272 5.56182 42.8468 5.11102 37.6125C5.00414 35.7317 5.00672 33.4659 5.00977 30.7937V30.793C5.01029 30.3343 5.01083 29.8637 5.01083 29.381V21.952C5.01083 21.4693 5.01029 20.9987 5.00977 20.54V20.5393C5.00672 17.8672 5.00414 15.6013 5.11102 13.7205C5.56182 8.48625 9.06799 5.40583 14.1519 5.08025C15.5485 4.99082 17.6119 5.00518 19.6723 5.01952Z" fill="url(#paint0_linear_1_154)"/>
<g filter="url(#filter0_dddddd_1_154)">
<path d="M11.7207 19.7348C11.7207 18.6836 12.5729 17.8314 13.6241 17.8314H26.9475C29.6032 17.8314 31.756 19.9842 31.756 22.6399V31.5055C31.756 32.5567 30.9038 33.4089 29.8526 33.4089H16.5292C13.8735 33.4089 11.7207 31.256 11.7207 28.6004V19.7348Z" fill="url(#paint1_linear_1_154)"/>
<path d="M13.624 18.057H26.9473C29.4784 18.057 31.5303 20.1089 31.5303 22.64V31.5052C31.5303 32.432 30.7792 33.183 29.8525 33.183H16.5293C13.9981 33.183 11.9463 31.1311 11.9463 28.6V19.7347C11.9463 18.8081 12.6973 18.057 13.624 18.057Z" stroke="url(#paint2_linear_1_154)" stroke-width="0.450794"/>
</g>
<g filter="url(#filter1_dddddd_1_154)">
<path d="M32.958 23.3465C32.958 22.6986 33.2368 22.0821 33.7232 21.6542L37.5404 18.2961C38.3494 17.5845 39.6197 18.1589 39.6197 19.2363V32.0422C39.6197 33.1094 38.3701 33.6875 37.5568 32.9964L34.0527 30.0193C33.3583 29.4293 32.958 28.564 32.958 27.6527V23.3465Z" fill="url(#paint3_linear_1_154)"/>
<path d="M37.6895 18.4651C38.3528 17.8818 39.3945 18.3532 39.3945 19.2366V32.0422C39.3945 32.9173 38.37 33.3909 37.7031 32.8245L34.1982 29.8479C33.5542 29.3007 33.1836 28.4977 33.1836 27.6526V23.3469C33.1836 22.7639 33.4343 22.2086 33.8721 21.8235L37.6895 18.4651Z" stroke="url(#paint4_linear_1_154)" stroke-width="0.450794"/>
</g>
<path d="M58.37 38.5403H52.0717L60.2524 14.294H68.0543L76.2351 38.5403H69.9367L64.2422 20.403H64.0527L58.37 38.5403ZM57.5294 28.9981H70.6944V33.4496H57.5294V28.9981ZM78.8456 14.294H86.1029L92.2592 29.3059H92.5434L98.6996 14.294H105.957V38.5403H100.251V23.6469H100.049L94.2245 38.3864H90.5781L84.7533 23.564H84.552V38.5403H78.8456V14.294ZM132.497 26.4172C132.497 29.0849 131.984 31.3462 130.958 33.2009C129.932 35.0557 128.543 36.4646 126.791 37.4275C125.046 38.3904 123.089 38.8718 120.919 38.8718C118.74 38.8718 116.779 38.3864 115.035 37.4156C113.29 36.4448 111.905 35.036 110.879 33.1891C109.861 31.3343 109.352 29.077 109.352 26.4172C109.352 23.7495 109.861 21.4882 110.879 19.6334C111.905 17.7786 113.29 16.3698 115.035 15.4069C116.779 14.444 118.74 13.9625 120.919 13.9625C123.089 13.9625 125.046 14.444 126.791 15.4069C128.543 16.3698 129.932 17.7786 130.958 19.6334C131.984 21.4882 132.497 23.7495 132.497 26.4172ZM126.507 26.4172C126.507 24.8386 126.282 23.5048 125.832 22.4156C125.39 21.3264 124.75 20.5016 123.914 19.9412C123.085 19.3809 122.087 19.1007 120.919 19.1007C119.758 19.1007 118.76 19.3809 117.923 19.9412C117.087 20.5016 116.443 21.3264 115.994 22.4156C115.552 23.5048 115.331 24.8386 115.331 26.4172C115.331 27.9957 115.552 29.3296 115.994 30.4188C116.443 31.508 117.087 32.3327 117.923 32.8931C118.76 33.4535 119.758 33.7337 120.919 33.7337C122.087 33.7337 123.085 33.4535 123.914 32.8931C124.75 32.3327 125.39 31.508 125.832 30.4188C126.282 29.3296 126.507 27.9957 126.507 26.4172ZM158.803 26.4172C158.803 29.0849 158.29 31.3462 157.264 33.2009C156.238 35.0557 154.849 36.4646 153.097 37.4275C151.353 38.3904 149.395 38.8718 147.225 38.8718C145.046 38.8718 143.085 38.3864 141.341 37.4156C139.597 36.4448 138.211 35.036 137.185 33.1891C136.167 31.3343 135.658 29.077 135.658 26.4172C135.658 23.7495 136.167 21.4882 137.185 19.6334C138.211 17.7786 139.597 16.3698 141.341 15.4069C143.085 14.444 145.046 13.9625 147.225 13.9625C149.395 13.9625 151.353 14.444 153.097 15.4069C154.849 16.3698 156.238 17.7786 157.264 19.6334C158.29 21.4882 158.803 23.7495 158.803 26.4172ZM152.813 26.4172C152.813 24.8386 152.588 23.5048 152.138 22.4156C151.696 21.3264 151.057 20.5016 150.22 19.9412C149.391 19.3809 148.393 19.1007 147.225 19.1007C146.065 19.1007 145.066 19.3809 144.23 19.9412C143.393 20.5016 142.75 21.3264 142.3 22.4156C141.858 23.5048 141.637 24.8386 141.637 26.4172C141.637 27.9957 141.858 29.3296 142.3 30.4188C142.75 31.508 143.393 32.3327 144.23 32.8931C145.066 33.4535 146.065 33.7337 147.225 33.7337C148.393 33.7337 149.391 33.4535 150.22 32.8931C151.057 32.3327 151.696 31.508 152.138 30.4188C152.588 29.3296 152.813 27.9957 152.813 26.4172ZM182.86 14.294V38.5403H177.888L168.239 24.5466H168.085V38.5403H162.225V14.294H167.268L176.811 28.2641H177.012V14.294H182.86Z" fill="white"/>
<defs>
<filter id="filter0_dddddd_1_154" x="8.11435" y="16.479" width="27.2481" height="22.7902" filterUnits="userSpaceOnUse" color-interpolation-filters="sRGB">
<feFlood flood-opacity="0" result="BackgroundImageFix"/>
<feColorMatrix in="SourceAlpha" type="matrix" values="0 0 0 0 0 0 0 0 0 0 0 0 0 0 0 0 0 0 127 0" result="hardAlpha"/>
<feOffset dy="0.123703"/>
<feGaussianBlur stdDeviation="0.0455686"/>
<feColorMatrix type="matrix" values="0 0 0 0 0.0509804 0 0 0 0 0.121569 0 0 0 0 0.396078 0 0 0 0.189957 0"/>
<feBlend mode="multiply" in2="BackgroundImageFix" result="effect1_dropShadow_1_154"/>
<feColorMatrix in="SourceAlpha" type="matrix" values="0 0 0 0 0 0 0 0 0 0 0 0 0 0 0 0 0 0 127 0" result="hardAlpha"/>
<feOffset dy="0.242703"/>
<feGaussianBlur stdDeviation="0.101348"/>
<feColorMatrix type="matrix" values="0 0 0 0 0.0509804 0 0 0 0 0.121569 0 0 0 0 0.396078 0 0 0 0.368551 0"/>
<feBlend mode="multiply" in2="effect1_dropShadow_1_154" result="effect2_dropShadow_1_154"/>
<feColorMatrix in="SourceAlpha" type="matrix" values="0 0 0 0 0 0 0 0 0 0 0 0 0 0 0 0 0 0 127 0" result="hardAlpha"/>
<feOffset dy="0.373252"/>
<feGaussianBlur stdDeviation="0.173572"/>
<feColorMatrix type="matrix" values="0 0 0 0 0.0509804 0 0 0 0 0.121569 0 0 0 0 0.396078 0 0 0 0.3 0"/>
<feBlend mode="multiply" in2="effect2_dropShadow_1_154" result="effect3_dropShadow_1_154"/>
<feColorMatrix in="SourceAlpha" type="matrix" values="0 0 0 0 0 0 0 0 0 0 0 0 0 0 0 0 0 0 127 0" result="hardAlpha"/>
<feOffset dy="0.547679"/>
<feGaussianBlur stdDeviation="0.551221"/>
<feColorMatrix type="matrix" values="0 0 0 0 0.0509804 0 0 0 0 0.121569 0 0 0 0 0.396078 0 0 0 0.3 0"/>
<feBlend mode="multiply" in2="effect3_dropShadow_1_154" result="effect4_dropShadow_1_154"/>
<feColorMatrix in="SourceAlpha" type="matrix" values="0 0 0 0 0 0 0 0 0 0 0 0 0 0 0 0 0 0 127 0" result="hardAlpha"/>
<feOffset dy="0.852209"/>
<feGaussianBlur stdDeviation="1.0248"/>
<feColorMatrix type="matrix" values="0 0 0 0 0.0509804 0 0 0 0 0.121569 0 0 0 0 0.396078 0 0 0 0.29 0"/>
<feBlend mode="overlay" in2="effect4_dropShadow_1_154" result="effect5_dropShadow_1_154"/>
<feColorMatrix in="SourceAlpha" type="matrix" values="0 0 0 0 0 0 0 0 0 0 0 0 0 0 0 0 0 0 127 0" result="hardAlpha"/>
<feOffset dy="2.25397"/>
<feGaussianBlur stdDeviation="1.80318"/>
<feColorMatrix type="matrix" values="0 0 0 0 0.0509804 0 0 0 0 0.121569 0 0 0 0 0.396078 0 0 0 0.45 0"/>
<feBlend mode="multiply" in2="effect5_dropShadow_1_154" result="effect6_dropShadow_1_154"/>
<feBlend mode="normal" in="SourceGraphic" in2="effect6_dropShadow_1_154" result="shape"/>
</filter>
<filter id="filter1_dddddd_1_154" x="29.3517" y="16.6293" width="13.8743" height="22.5278" filterUnits="userSpaceOnUse" color-interpolation-filters="sRGB">
<feFlood flood-opacity="0" result="BackgroundImageFix"/>
<feColorMatrix in="SourceAlpha" type="matrix" values="0 0 0 0 0 0 0 0 0 0 0 0 0 0 0 0 0 0 127 0" result="hardAlpha"/>
<feOffset dy="0.123703"/>
<feGaussianBlur stdDeviation="0.0455686"/>
<feColorMatrix type="matrix" values="0 0 0 0 0.0509804 0 0 0 0 0.121569 0 0 0 0 0.396078 0 0 0 0.189957 0"/>
<feBlend mode="multiply" in2="BackgroundImageFix" result="effect1_dropShadow_1_154"/>
<feColorMatrix in="SourceAlpha" type="matrix" values="0 0 0 0 0 0 0 0 0 0 0 0 0 0 0 0 0 0 127 0" result="hardAlpha"/>
<feOffset dy="0.242703"/>
<feGaussianBlur stdDeviation="0.101348"/>
<feColorMatrix type="matrix" values="0 0 0 0 0.0509804 0 0 0 0 0.121569 0 0 0 0 0.396078 0 0 0 0.368551 0"/>
<feBlend mode="multiply" in2="effect1_dropShadow_1_154" result="effect2_dropShadow_1_154"/>
<feColorMatrix in="SourceAlpha" type="matrix" values="0 0 0 0 0 0 0 0 0 0 0 0 0 0 0 0 0 0 127 0" result="hardAlpha"/>
<feOffset dy="0.373252"/>
<feGaussianBlur stdDeviation="0.173572"/>
<feColorMatrix type="matrix" values="0 0 0 0 0.0509804 0 0 0 0 0.121569 0 0 0 0 0.396078 0 0 0 0.3 0"/>
<feBlend mode="multiply" in2="effect2_dropShadow_1_154" result="effect3_dropShadow_1_154"/>
<feColorMatrix in="SourceAlpha" type="matrix" values="0 0 0 0 0 0 0 0 0 0 0 0 0 0 0 0 0 0 127 0" result="hardAlpha"/>
<feOffset dy="0.547679"/>
<feGaussianBlur stdDeviation="0.551221"/>
<feColorMatrix type="matrix" values="0 0 0 0 0.0509804 0 0 0 0 0.121569 0 0 0 0 0.396078 0 0 0 0.3 0"/>
<feBlend mode="multiply" in2="effect3_dropShadow_1_154" result="effect4_dropShadow_1_154"/>
<feColorMatrix in="SourceAlpha" type="matrix" values="0 0 0 0 0 0 0 0 0 0 0 0 0 0 0 0 0 0 127 0" result="hardAlpha"/>
<feOffset dy="0.852209"/>
<feGaussianBlur stdDeviation="1.0248"/>
<feColorMatrix type="matrix" values="0 0 0 0 0.0509804 0 0 0 0 0.121569 0 0 0 0 0.396078 0 0 0 0.29 0"/>
<feBlend mode="overlay" in2="effect4_dropShadow_1_154" result="effect5_dropShadow_1_154"/>
<feColorMatrix in="SourceAlpha" type="matrix" values="0 0 0 0 0 0 0 0 0 0 0 0 0 0 0 0 0 0 127 0" result="hardAlpha"/>
<feOffset dy="2.25397"/>
<feGaussianBlur stdDeviation="1.80318"/>
<feColorMatrix type="matrix" values="0 0 0 0 0.0509804 0 0 0 0 0.121569 0 0 0 0 0.396078 0 0 0 0.45 0"/>
<feBlend mode="multiply" in2="effect5_dropShadow_1_154" result="effect6_dropShadow_1_154"/>
<feBlend mode="normal" in="SourceGraphic" in2="effect6_dropShadow_1_154" result="shape"/>
</filter>
<linearGradient id="paint0_linear_1_154" x1="25.6472" y1="5.00885" x2="25.6472" y2="46.3242" gradientUnits="userSpaceOnUse">
<stop stop-color="#A4C1FF"/>
<stop offset="1" stop-color="#0E78F9"/>
</linearGradient>
<linearGradient id="paint1_linear_1_154" x1="21.7383" y1="17.8314" x2="21.7383" y2="33.4089" gradientUnits="userSpaceOnUse">
<stop stop-color="white"/>
<stop offset="1" stop-color="#C5D4F7"/>
</linearGradient>
<linearGradient id="paint2_linear_1_154" x1="21.7383" y1="17.8314" x2="21.7383" y2="33.4089" gradientUnits="userSpaceOnUse">
<stop stop-color="white"/>
<stop offset="1" stop-color="#637ACA"/>
</linearGradient>
<linearGradient id="paint3_linear_1_154" x1="36.2889" y1="17.9817" x2="36.2889" y2="33.2968" gradientUnits="userSpaceOnUse">
<stop stop-color="white"/>
<stop offset="1" stop-color="#C5D4F7"/>
</linearGradient>
<linearGradient id="paint4_linear_1_154" x1="36.2889" y1="17.9817" x2="36.2889" y2="33.2968" gradientUnits="userSpaceOnUse">
<stop stop-color="white"/>
<stop offset="1" stop-color="#637ACA"/>
</linearGradient>
</defs>
</svg>
