<svg width="186" height="52" viewBox="0 0 186 52" fill="none" xmlns="http://www.w3.org/2000/svg">
<path d="M19.6723 5.01952C20.4376 5.02484 21.2025 5.03017 21.9326 5.03017H29.3617C30.0919 5.03017 30.8568 5.02484 31.6221 5.01952C33.6825 5.00518 35.7458 4.99082 37.1424 5.08025C42.2264 5.40583 45.7325 8.48625 46.1833 13.7205C46.2902 15.6013 46.2876 17.8672 46.2846 20.5393V20.54C46.2841 20.9987 46.2835 21.4693 46.2835 21.952V29.381C46.2835 29.8637 46.2841 30.3343 46.2846 30.793C46.2876 33.4654 46.2902 35.7315 46.1833 37.6125C45.7325 42.8468 42.2264 45.9272 37.1424 46.2528C35.7458 46.3422 33.6825 46.3278 31.6221 46.3135C30.8568 46.3082 30.0919 46.3028 29.3617 46.3028H21.9326C21.2025 46.3028 20.4376 46.3082 19.6723 46.3135C17.6119 46.3278 15.5485 46.3422 14.1519 46.2528C9.06799 45.9272 5.56182 42.8468 5.11102 37.6125C5.00414 35.7317 5.00672 33.4659 5.00977 30.7937V30.793C5.01029 30.3343 5.01083 29.8637 5.01083 29.381V21.952C5.01083 21.4693 5.01029 20.9987 5.00977 20.54V20.5393C5.00672 17.8672 5.00414 15.6013 5.11102 13.7205C5.56182 8.48625 9.06799 5.40583 14.1519 5.08025C15.5485 4.99082 17.6119 5.00518 19.6723 5.01952Z" fill="url(#paint0_linear_1_154)"/>
<g filter="url(#filter0_dddddd_1_154)">
<path d="M11.7207 19.7348C11.7207 18.6836 12.5729 17.8314 13.6241 17.8314H26.9475C29.6032 17.8314 31.756 19.9842 31.756 22.6399V31.5055C31.756 32.5567 30.9038 33.4089 29.8526 33.4089H16.5292C13.8735 33.4089 11.7207 31.256 11.7207 28.6004V19.7348Z" fill="url(#paint1_linear_1_154)"/>
<path d="M13.624 18.057H26.9473C29.4784 18.057 31.5303 20.1089 31.5303 22.64V31.5052C31.5303 32.432 30.7792 33.183 29.8525 33.183H16.5293C13.9981 33.183 11.9463 31.1311 11.9463 28.6V19.7347C11.9463 18.8081 12.6973 18.057 13.624 18.057Z" stroke="url(#paint2_linear_1_154)" stroke-width="0.450794"/>
</g>
<g filter="url(#filter1_dddddd_1_154)">
<path d="M32.958 23.3465C32.958 22.6986 33.2368 22.0821 33.7232 21.6542L37.5404 18.2961C38.3494 17.5845 39.6197 18.1589 39.6197 19.2363V32.0422C39.6197 33.1094 38.3701 33.6875 37.5568 32.9964L34.0527 30.0193C33.3583 29.4293 32.958 28.564 32.958 27.6527V23.3465Z" fill="url(#paint3_linear_1_154)"/>
<path d="M37.6895 18.4651C38.3528 17.8818 39.3945 18.3532 39.3945 19.2366V32.0422C39.3945 32.9173 38.37 33.3909 37.7031 32.8245L34.1982 29.8479C33.5542 29.3007 33.1836 28.4977 33.1836 27.6526V23.3469C33.1836 22.7639 33.4343 22.2086 33.8721 21.8235L37.6895 18.4651Z" stroke="url(#paint4_linear_1_154)" stroke-width="0.450794"/>
</g>
<path d="M53.1253 14.294H60.3827L66.5389 29.3059H66.8231L72.9794 14.294H80.2367V38.5403H74.5303V23.6469H74.329L68.5042 38.3864H64.8578L59.033 23.564H58.8317V38.5403H53.1253V14.294ZM106.777 26.4172C106.777 29.0849 106.264 31.3462 105.238 33.2009C104.212 35.0557 102.823 36.4646 101.07 37.4275C99.3261 38.3904 97.3687 38.8718 95.1983 38.8718C93.0199 38.8718 91.0585 38.3864 89.3143 37.4156C87.57 36.4448 86.1848 35.036 85.1588 33.1891C84.1406 31.3343 83.6315 29.077 83.6315 26.4172C83.6315 23.7495 84.1406 21.4882 85.1588 19.6334C86.1848 17.7786 87.57 16.3698 89.3143 15.4069C91.0585 14.444 93.0199 13.9625 95.1983 13.9625C97.3687 13.9625 99.3261 14.444 101.07 15.4069C102.823 16.3698 104.212 17.7786 105.238 19.6334C106.264 21.4882 106.777 23.7495 106.777 26.4172ZM100.786 26.4172C100.786 24.8386 100.561 23.5048 100.111 22.4156C99.6695 21.3264 99.0302 20.5016 98.1935 19.9412C97.3648 19.3809 96.3664 19.1007 95.1983 19.1007C94.038 19.1007 93.0396 19.3809 92.203 19.9412C91.3664 20.5016 90.7231 21.3264 90.2732 22.4156C89.8312 23.5048 89.6102 24.8386 89.6102 26.4172C89.6102 27.9957 89.8312 29.3296 90.2732 30.4188C90.7231 31.508 91.3664 32.3327 92.203 32.8931C93.0396 33.4535 94.038 33.7337 95.1983 33.7337C96.3664 33.7337 97.3648 33.4535 98.1935 32.8931C99.0302 32.3327 99.6695 31.508 100.111 30.4188C100.561 29.3296 100.786 27.9957 100.786 26.4172ZM133.083 26.4172C133.083 29.0849 132.57 31.3462 131.544 33.2009C130.518 35.0557 129.129 36.4646 127.377 37.4275C125.632 38.3904 123.675 38.8718 121.505 38.8718C119.326 38.8718 117.365 38.3864 115.621 37.4156C113.876 36.4448 112.491 35.036 111.465 33.1891C110.447 31.3343 109.938 29.077 109.938 26.4172C109.938 23.7495 110.447 21.4882 111.465 19.6334C112.491 17.7786 113.876 16.3698 115.621 15.4069C117.365 14.444 119.326 13.9625 121.505 13.9625C123.675 13.9625 125.632 14.444 127.377 15.4069C129.129 16.3698 130.518 17.7786 131.544 19.6334C132.57 21.4882 133.083 23.7495 133.083 26.4172ZM127.093 26.4172C127.093 24.8386 126.868 23.5048 126.418 22.4156C125.976 21.3264 125.336 20.5016 124.5 19.9412C123.671 19.3809 122.673 19.1007 121.505 19.1007C120.344 19.1007 119.346 19.3809 118.509 19.9412C117.673 20.5016 117.029 21.3264 116.58 22.4156C116.138 23.5048 115.917 24.8386 115.917 26.4172C115.917 27.9957 116.138 29.3296 116.58 30.4188C117.029 31.508 117.673 32.3327 118.509 32.8931C119.346 33.4535 120.344 33.7337 121.505 33.7337C122.673 33.7337 123.671 33.4535 124.5 32.8931C125.336 32.3327 125.976 31.508 126.418 30.4188C126.868 29.3296 127.093 27.9957 127.093 26.4172ZM157.14 14.294V38.5403H152.168L142.519 24.5466H142.365V38.5403H136.505V14.294H141.548L151.09 28.2641H151.292V14.294H157.14Z" fill="white"/>
<defs>
<filter id="filter0_dddddd_1_154" x="8.11435" y="16.479" width="27.2481" height="22.7902" filterUnits="userSpaceOnUse" color-interpolation-filters="sRGB">
<feFlood flood-opacity="0" result="BackgroundImageFix"/>
<feColorMatrix in="SourceAlpha" type="matrix" values="0 0 0 0 0 0 0 0 0 0 0 0 0 0 0 0 0 0 127 0" result="hardAlpha"/>
<feOffset dy="0.123703"/>
<feGaussianBlur stdDeviation="0.0455686"/>
<feColorMatrix type="matrix" values="0 0 0 0 0.0509804 0 0 0 0 0.121569 0 0 0 0 0.396078 0 0 0 0.189957 0"/>
<feBlend mode="multiply" in2="BackgroundImageFix" result="effect1_dropShadow_1_154"/>
<feColorMatrix in="SourceAlpha" type="matrix" values="0 0 0 0 0 0 0 0 0 0 0 0 0 0 0 0 0 0 127 0" result="hardAlpha"/>
<feOffset dy="0.242703"/>
<feGaussianBlur stdDeviation="0.101348"/>
<feColorMatrix type="matrix" values="0 0 0 0 0.0509804 0 0 0 0 0.121569 0 0 0 0 0.396078 0 0 0 0.368551 0"/>
<feBlend mode="multiply" in2="effect1_dropShadow_1_154" result="effect2_dropShadow_1_154"/>
<feColorMatrix in="SourceAlpha" type="matrix" values="0 0 0 0 0 0 0 0 0 0 0 0 0 0 0 0 0 0 127 0" result="hardAlpha"/>
<feOffset dy="0.373252"/>
<feGaussianBlur stdDeviation="0.173572"/>
<feColorMatrix type="matrix" values="0 0 0 0 0.0509804 0 0 0 0 0.121569 0 0 0 0 0.396078 0 0 0 0.3 0"/>
<feBlend mode="multiply" in2="effect2_dropShadow_1_154" result="effect3_dropShadow_1_154"/>
<feColorMatrix in="SourceAlpha" type="matrix" values="0 0 0 0 0 0 0 0 0 0 0 0 0 0 0 0 0 0 127 0" result="hardAlpha"/>
<feOffset dy="0.547679"/>
<feGaussianBlur stdDeviation="0.551221"/>
<feColorMatrix type="matrix" values="0 0 0 0 0.0509804 0 0 0 0 0.121569 0 0 0 0 0.396078 0 0 0 0.3 0"/>
<feBlend mode="multiply" in2="effect3_dropShadow_1_154" result="effect4_dropShadow_1_154"/>
<feColorMatrix in="SourceAlpha" type="matrix" values="0 0 0 0 0 0 0 0 0 0 0 0 0 0 0 0 0 0 127 0" result="hardAlpha"/>
<feOffset dy="0.852209"/>
<feGaussianBlur stdDeviation="1.0248"/>
<feColorMatrix type="matrix" values="0 0 0 0 0.0509804 0 0 0 0 0.121569 0 0 0 0 0.396078 0 0 0 0.29 0"/>
<feBlend mode="overlay" in2="effect4_dropShadow_1_154" result="effect5_dropShadow_1_154"/>
<feColorMatrix in="SourceAlpha" type="matrix" values="0 0 0 0 0 0 0 0 0 0 0 0 0 0 0 0 0 0 127 0" result="hardAlpha"/>
<feOffset dy="2.25397"/>
<feGaussianBlur stdDeviation="1.80318"/>
<feColorMatrix type="matrix" values="0 0 0 0 0.0509804 0 0 0 0 0.121569 0 0 0 0 0.396078 0 0 0 0.45 0"/>
<feBlend mode="multiply" in2="effect5_dropShadow_1_154" result="effect6_dropShadow_1_154"/>
<feBlend mode="normal" in="SourceGraphic" in2="effect6_dropShadow_1_154" result="shape"/>
</filter>
<filter id="filter1_dddddd_1_154" x="29.3517" y="16.6293" width="13.8743" height="22.5278" filterUnits="userSpaceOnUse" color-interpolation-filters="sRGB">
<feFlood flood-opacity="0" result="BackgroundImageFix"/>
<feColorMatrix in="SourceAlpha" type="matrix" values="0 0 0 0 0 0 0 0 0 0 0 0 0 0 0 0 0 0 127 0" result="hardAlpha"/>
<feOffset dy="0.123703"/>
<feGaussianBlur stdDeviation="0.0455686"/>
<feColorMatrix type="matrix" values="0 0 0 0 0.0509804 0 0 0 0 0.121569 0 0 0 0 0.396078 0 0 0 0.189957 0"/>
<feBlend mode="multiply" in2="BackgroundImageFix" result="effect1_dropShadow_1_154"/>
<feColorMatrix in="SourceAlpha" type="matrix" values="0 0 0 0 0 0 0 0 0 0 0 0 0 0 0 0 0 0 127 0" result="hardAlpha"/>
<feOffset dy="0.242703"/>
<feGaussianBlur stdDeviation="0.101348"/>
<feColorMatrix type="matrix" values="0 0 0 0 0.0509804 0 0 0 0 0.121569 0 0 0 0 0.396078 0 0 0 0.368551 0"/>
<feBlend mode="multiply" in2="effect1_dropShadow_1_154" result="effect2_dropShadow_1_154"/>
<feColorMatrix in="SourceAlpha" type="matrix" values="0 0 0 0 0 0 0 0 0 0 0 0 0 0 0 0 0 0 127 0" result="hardAlpha"/>
<feOffset dy="0.373252"/>
<feGaussianBlur stdDeviation="0.173572"/>
<feColorMatrix type="matrix" values="0 0 0 0 0.0509804 0 0 0 0 0.121569 0 0 0 0 0.396078 0 0 0 0.3 0"/>
<feBlend mode="multiply" in2="effect2_dropShadow_1_154" result="effect3_dropShadow_1_154"/>
<feColorMatrix in="SourceAlpha" type="matrix" values="0 0 0 0 0 0 0 0 0 0 0 0 0 0 0 0 0 0 127 0" result="hardAlpha"/>
<feOffset dy="0.547679"/>
<feGaussianBlur stdDeviation="0.551221"/>
<feColorMatrix type="matrix" values="0 0 0 0 0.0509804 0 0 0 0 0.121569 0 0 0 0 0.396078 0 0 0 0.3 0"/>
<feBlend mode="multiply" in2="effect3_dropShadow_1_154" result="effect4_dropShadow_1_154"/>
<feColorMatrix in="SourceAlpha" type="matrix" values="0 0 0 0 0 0 0 0 0 0 0 0 0 0 0 0 0 0 127 0" result="hardAlpha"/>
<feOffset dy="0.852209"/>
<feGaussianBlur stdDeviation="1.0248"/>
<feColorMatrix type="matrix" values="0 0 0 0 0.0509804 0 0 0 0 0.121569 0 0 0 0 0.396078 0 0 0 0.29 0"/>
<feBlend mode="overlay" in2="effect4_dropShadow_1_154" result="effect5_dropShadow_1_154"/>
<feColorMatrix in="SourceAlpha" type="matrix" values="0 0 0 0 0 0 0 0 0 0 0 0 0 0 0 0 0 0 127 0" result="hardAlpha"/>
<feOffset dy="2.25397"/>
<feGaussianBlur stdDeviation="1.80318"/>
<feColorMatrix type="matrix" values="0 0 0 0 0.0509804 0 0 0 0 0.121569 0 0 0 0 0.396078 0 0 0 0.45 0"/>
<feBlend mode="multiply" in2="effect5_dropShadow_1_154" result="effect6_dropShadow_1_154"/>
<feBlend mode="normal" in="SourceGraphic" in2="effect6_dropShadow_1_154" result="shape"/>
</filter>
<linearGradient id="paint0_linear_1_154" x1="25.6472" y1="5.00885" x2="25.6472" y2="46.3242" gradientUnits="userSpaceOnUse">
<stop stop-color="#A4C1FF"/>
<stop offset="1" stop-color="#0E78F9"/>
</linearGradient>
<linearGradient id="paint1_linear_1_154" x1="21.7383" y1="17.8314" x2="21.7383" y2="33.4089" gradientUnits="userSpaceOnUse">
<stop stop-color="white"/>
<stop offset="1" stop-color="#C5D4F7"/>
</linearGradient>
<linearGradient id="paint2_linear_1_154" x1="21.7383" y1="17.8314" x2="21.7383" y2="33.4089" gradientUnits="userSpaceOnUse">
<stop stop-color="white"/>
<stop offset="1" stop-color="#637ACA"/>
</linearGradient>
<linearGradient id="paint3_linear_1_154" x1="36.2889" y1="17.9817" x2="36.2889" y2="33.2968" gradientUnits="userSpaceOnUse">
<stop stop-color="white"/>
<stop offset="1" stop-color="#C5D4F7"/>
</linearGradient>
<linearGradient id="paint4_linear_1_154" x1="36.2889" y1="17.9817" x2="36.2889" y2="33.2968" gradientUnits="userSpaceOnUse">
<stop stop-color="white"/>
<stop offset="1" stop-color="#637ACA"/>
</linearGradient>
</defs>
</svg>
